<svg width="40" height="40" viewBox="0 0 40 40" fill="none" xmlns="http://www.w3.org/2000/svg">
<path d="M16.2277 17.7232C16.6161 17.442 16.8036 16.9777 16.8036 16.3393C16.817 16.0357 16.7545 15.7366 16.6205 15.4643C16.5 15.2455 16.3214 15.0625 16.1027 14.933C15.8759 14.7955 15.6239 14.7044 15.3616 14.6652C15.0759 14.6116 14.7857 14.5848 14.5 14.5893H11.3616V18.1473H14.7589C15.3437 18.1518 15.8393 18.0089 16.2277 17.7232ZM16.7545 20.9375C16.317 20.6027 15.7321 20.4375 15.0045 20.4375H11.3527V24.6339H14.933C15.2679 24.6339 15.5759 24.6027 15.875 24.5402C16.158 24.4848 16.4278 24.3757 16.6696 24.2187C16.8973 24.0714 17.0804 23.8705 17.2188 23.6116C17.3527 23.3527 17.4196 23.0223 17.4196 22.625C17.4196 21.8348 17.1964 21.2768 16.7545 20.9375ZM24.183 12.3929H30.3616V13.8973H24.183V12.3929ZM20.3214 24.7991C20.0324 25.3477 19.6198 25.8215 19.1161 26.183C18.5893 26.5491 18.0045 26.817 17.3839 26.9732C16.7347 27.1472 16.065 27.2328 15.3929 27.2277H8V12H15.1875C15.9152 12 16.5759 12.067 17.1786 12.192C17.7768 12.317 18.2857 12.5312 18.7143 12.8214C19.1384 13.1116 19.4732 13.5 19.7098 13.9821C19.942 14.4598 20.0625 15.058 20.0625 15.7679C20.0625 16.5357 19.8884 17.1696 19.5402 17.683C19.1875 18.1964 18.6786 18.6116 17.9866 18.9375C18.9286 19.2054 19.6205 19.683 20.0759 20.3527C20.5402 21.0313 20.7679 21.8438 20.7679 22.7991C20.7679 23.5759 20.6205 24.2411 20.3214 24.7991ZM32.7679 22.442H24.8036C24.8036 23.308 25.1027 24.1384 25.5536 24.5848C26.0089 25.0268 26.6607 25.25 27.5134 25.25C28.1295 25.25 28.6518 25.0937 29.0982 24.7857C29.5402 24.4777 29.808 24.1518 29.9063 23.8125H32.5759C32.1473 25.1384 31.4955 26.0848 30.6116 26.6563C29.7366 27.2277 28.6652 27.5134 27.4196 27.5134C26.5491 27.5134 25.7679 27.3705 25.067 27.0982C24.3929 26.8348 23.7857 26.433 23.2857 25.9152C22.7927 25.3834 22.4117 24.7579 22.1652 24.0759C21.8929 23.3214 21.7589 22.5268 21.7679 21.7277C21.7679 20.9018 21.9062 20.1339 22.1741 19.4196C22.6875 18.0312 23.7545 16.9196 25.1161 16.3437C25.8438 16.0402 26.625 15.8884 27.4152 15.8973C28.3527 15.8973 29.1652 16.0759 29.8705 16.442C30.5496 16.7915 31.1392 17.2925 31.5938 17.9062C32.0446 18.5179 32.3616 19.2143 32.5625 20C32.7545 20.7723 32.8214 21.5848 32.7679 22.442ZM27.3214 18.1741C26.8393 18.1741 26.433 18.2589 26.1205 18.4241C25.808 18.5893 25.5491 18.7946 25.3527 19.0313C25.1656 19.2597 25.0273 19.5241 24.9464 19.808C24.875 20.0446 24.8259 20.2857 24.808 20.5313H29.7411C29.6696 19.7589 29.4018 19.1875 29.0446 18.7857C28.6696 18.3884 28.067 18.1741 27.3214 18.1741Z" fill="white"/>
</svg>
